<?xml version="1.0" encoding="utf-8"?>
<!-- Generator: Adobe Illustrator 19.0.0, SVG Export Plug-In . SVG Version: 6.00 Build 0)  -->
<svg version="1.1" id="Layer_1" xmlns="http://www.w3.org/2000/svg" xmlns:xlink="http://www.w3.org/1999/xlink" x="0px" y="0px"
	 viewBox="-280 126 50 50" style="enable-background:new -280 126 50 50;" xml:space="preserve">
<style type="text/css">
	.st0{fill-rule:evenodd;clip-rule:evenodd;fill:url(#XMLID_2_);}
	.st1{fill-rule:evenodd;clip-rule:evenodd;fill:url(#XMLID_3_);}
	.st2{fill-rule:evenodd;clip-rule:evenodd;fill:url(#XMLID_4_);}
</style>
<g id="XMLID_273_">
	
		<linearGradient id="XMLID_2_" gradientUnits="userSpaceOnUse" x1="-275.0591" y1="149.7223" x2="-236.0909" y2="149.7223" gradientTransform="matrix(0.9999 1.428888e-002 -1.428888e-002 0.9999 -0.4808 4.2797)">
		<stop  offset="0" style="stop-color:#F7931E"/>
		<stop  offset="1" style="stop-color:#FCEE21"/>
	</linearGradient>
	<path id="XMLID_280_" class="st0" d="M-268.9,156.4c0.2-12.5,10.5-22.6,23-22.4c2.6,0,5.1,0.5,7.4,1.3c-4.1-4.3-9.8-7-16.2-7.1
		c-12.5-0.2-22.9,9.8-23,22.4c-0.1,10,6.1,18.5,15,21.7C-266.6,168.2-269,162.6-268.9,156.4z"/>
	<linearGradient id="XMLID_3_" gradientUnits="userSpaceOnUse" x1="-275.0899" y1="149.0523" x2="-239.7258" y2="165.9233">
		<stop  offset="0" style="stop-color:#9CD6A1"/>
		<stop  offset="1.222676e-002" style="stop-color:#9AD49F"/>
		<stop  offset="0.3594" style="stop-color:#58AB69"/>
		<stop  offset="0.6513" style="stop-color:#288D42"/>
		<stop  offset="0.8736" style="stop-color:#0B7A2A"/>
		<stop  offset="1" style="stop-color:#007321"/>
	</linearGradient>
	<path id="XMLID_272_" class="st1" d="M-245.6,162.7c-12,3.6-24.7-3.2-28.3-15.2c-0.7-2.5-1-5-0.9-7.4c-2.9,5.2-3.7,11.4-1.9,17.5
		c3.6,12,16.3,18.8,28.3,15.2c9.5-2.9,15.8-11.4,16.2-20.8C-235.1,156.9-239.7,160.9-245.6,162.7z"/>
	
		<linearGradient id="XMLID_4_" gradientUnits="userSpaceOnUse" x1="-160.045" y1="-303.1125" x2="-121.0767" y2="-303.1125" gradientTransform="matrix(-0.7741 0.633 -0.633 -0.7741 -552.7903 3.7342)">
		<stop  offset="0" style="stop-color:#ED1E79"/>
		<stop  offset="1" style="stop-color:#9E005D"/>
	</linearGradient>
	<path id="XMLID_277_" class="st2" d="M-247.8,137.9c7.9,9.7,6.5,24-3.2,32c-2,1.6-4.2,2.9-6.5,3.7c5.9,0.7,12-0.9,16.9-5
		c9.7-7.9,11.1-22.2,3.2-32c-6.3-7.7-16.6-10.2-25.5-6.9C-257.2,130.3-251.7,133.1-247.8,137.9z"/>
</g>
</svg>
